<svg width="32" height="32" viewBox="0 0 32 32" fill="none" xmlns="http://www.w3.org/2000/svg">
<circle cx="16" cy="16" r="16" fill="#FFBE01"/>
<path d="M16.0001 7.66675C11.4001 7.66675 7.66675 11.4001 7.66675 16.0001C7.66675 20.6001 11.4001 24.3334 16.0001 24.3334C20.6001 24.3334 24.3334 20.6001 24.3334 16.0001C24.3334 11.4001 20.6001 7.66675 16.0001 7.66675ZM20.3751 16.2751C20.3751 16.6167 20.0917 16.9001 19.7501 16.9001C19.4084 16.9001 19.1251 16.6167 19.1251 16.2751V13.7584L12.6917 20.1917C12.5667 20.3167 12.4084 20.3751 12.2501 20.3751C12.0917 20.3751 11.9334 20.3167 11.8084 20.1917C11.5667 19.9501 11.5667 19.5501 11.8084 19.3084L18.2417 12.8751H15.7251C15.3834 12.8751 15.1001 12.5917 15.1001 12.2501C15.1001 11.9084 15.3834 11.6251 15.7251 11.6251H19.7501C20.0917 11.6251 20.3751 11.9084 20.3751 12.2501V16.2751Z" fill="#0C111D"/>
</svg>
