<svg width="369" height="226" viewBox="0 0 369 226" fill="none" xmlns="http://www.w3.org/2000/svg">
  <path d="M64.6777 203.055C67.9878 205.15 80.852 212.776 97.4777 210.305C114.279 207.786 128.422 195.947 134.29 179.73"
    stroke="#090909" stroke-width="28.9655" stroke-linecap="round" stroke-linejoin="round" />
  <path
    d="M309.626 176.176C307.118 179.118 297.238 189.969 280.562 192.205C263.711 194.464 246.483 187.074 235.751 173.211"
    stroke="#090909" stroke-width="28.9655" stroke-linecap="round" stroke-linejoin="round" />
  <path
    d="M212.375 82.9508C217.991 82.4238 223.498 84.5335 227.073 88.5963L227.074 88.5973L265.616 132.329C269.83 137.102 270.665 143.726 267.802 149.249L267.512 149.78L239.101 199.889C236.453 204.541 231.512 207.656 225.923 208.183H225.922L154.254 215.008C148.637 215.535 143.13 213.425 139.555 209.362H139.554L101.012 165.63L100.615 165.163C96.6192 160.273 96.0139 153.628 99.116 148.179V148.178L127.527 98.068C130.176 93.4164 135.117 90.303 140.706 89.776H140.707L212.375 82.9508Z"
    fill="#FACA34" stroke="black" />
  <path
    d="M206.935 94.8094L148.582 100.364C143.893 100.811 139.756 103.424 137.549 107.331L114.403 148.12C111.72 152.851 112.347 158.665 115.983 162.807L147.379 198.418C150.388 201.831 155.002 203.597 159.691 203.149L218.044 197.595C222.733 197.147 226.871 194.535 229.078 190.628L252.223 149.838C254.906 145.108 254.279 139.294 250.643 135.151L219.248 99.5403C216.239 96.1274 211.625 94.3622 206.935 94.8094Z"
    fill="#090A0A" />
  <path
    d="M156.132 159.371C161.699 159.371 166.212 155.135 166.212 149.909C166.212 144.684 161.699 140.447 156.132 140.447C150.564 140.447 146.051 144.684 146.051 149.909C146.051 155.135 150.564 159.371 156.132 159.371Z"
    fill="white" />
  <path
    d="M156.132 156.641C160.093 156.641 163.304 153.627 163.304 149.909C163.304 146.191 160.093 143.178 156.132 143.178C152.171 143.178 148.96 146.191 148.96 149.909C148.96 153.627 152.171 156.641 156.132 156.641Z"
    fill="#1F2225" />
  <path
    d="M210.146 154.216C215.714 154.216 220.227 149.98 220.227 144.754C220.227 139.529 215.714 135.293 210.146 135.293C204.579 135.293 200.066 139.529 200.066 144.754C200.066 149.98 204.579 154.216 210.146 154.216Z"
    fill="white" />
  <path
    d="M210.147 151.486C214.108 151.486 217.319 148.472 217.319 144.755C217.319 141.037 214.108 138.023 210.147 138.023C206.186 138.023 202.975 141.037 202.975 144.755C202.975 148.472 206.186 151.486 210.147 151.486Z"
    fill="#1F2225" />
  <path
    d="M192.142 152.687C192.894 152.592 193.521 153.181 193.446 153.863C192.869 158.5 191.991 163.843 185.697 164.173C179.403 164.502 176.544 160.336 174.638 156.382C174.337 155.723 174.764 154.993 175.516 154.876L192.142 152.663V152.687Z"
    fill="white" />
  <path
    d="M155.305 148.968C157.091 148.968 158.54 147.608 158.54 145.932C158.54 144.255 157.091 142.895 155.305 142.895C153.518 142.895 152.07 144.255 152.07 145.932C152.07 147.608 153.518 148.968 155.305 148.968Z"
    fill="white" />
  <path
    d="M209.42 143.86C211.207 143.86 212.655 142.501 212.655 140.824C212.655 139.147 211.207 137.788 209.42 137.788C207.634 137.788 206.186 139.147 206.186 140.824C206.186 142.501 207.634 143.86 209.42 143.86Z"
    fill="white" />
  <path
    d="M304.282 167.68C303.555 166.15 302.828 164.267 302.351 162.031C301.273 156.853 302.176 152.475 302.953 149.886C302.075 144.755 302.226 140.636 302.527 137.811C302.828 135.128 303.254 133.669 304.483 132.963C306.163 132.021 308.771 132.633 310.225 133.951C310.802 134.469 311.379 135.269 312.031 139.082C312.307 140.706 312.607 142.942 312.733 145.602C318.124 136.352 322.162 129.126 325.121 123.266C326.073 121.406 327.954 117.593 331.089 117.287C332.694 117.146 334.524 117.923 335.477 119.241C337.007 121.335 335.903 124.254 332.644 131.762C330.637 136.423 328.832 140.471 327.377 143.695C335.151 136.352 340.643 130.844 344.73 126.561C346.661 124.537 349.67 121.359 352.88 121.9C354.861 122.23 356.692 123.925 357.168 125.807C357.946 128.891 354.836 131.668 349.846 136.776C347.012 139.647 342.825 144.025 337.809 149.744C342.925 146.944 351.576 142.495 359.4 140.283C361.657 139.647 364.741 138.918 366.446 140.4C367.851 141.601 367.675 143.766 367.625 144.307C367.048 151.227 346.837 156.735 343.401 157.653C348.492 156.9 352.905 156.382 356.516 155.982C358.347 155.793 360.754 155.558 361.958 156.876C362.81 157.818 362.76 159.253 362.56 159.912C361.331 164.314 346.561 164.361 344.103 164.361C342.448 166.715 339.063 170.786 333.321 174.034C328.054 177 323.114 177.965 320.206 178.318C320.908 180.436 320.557 182.555 319.203 183.567C317.773 184.626 315.592 184.202 314.187 183.943C313.234 183.755 312.532 183.449 311.805 183.19C310.075 182.578 306.464 181.072 302.828 177.918C300.596 175.964 300.044 175.305 299.793 174.811C299.467 174.152 298.489 172.222 299.467 170.316C300.27 168.739 302.151 167.75 304.257 167.703L304.282 167.68Z"
    fill="#BBBBBB" stroke="#58595B" stroke-width="1.31947" stroke-miterlimit="10" />
  <path
    d="M312.832 147.297C313.585 148.897 314.337 150.921 314.738 153.322C315.791 159.818 313.61 165.067 312.356 167.515"
    stroke="#58595B" stroke-width="1.31947" stroke-miterlimit="10" />
  <path
    d="M68.8663 192.676C69.1421 191.028 69.2926 189.027 69.092 186.744C68.6406 181.472 66.5342 177.494 65.0296 175.211C64.4027 170.033 63.0736 166.103 61.9953 163.466C60.9421 160.948 60.1146 159.653 58.7103 159.3C56.8045 158.806 54.4975 160.054 53.4694 161.701C53.0681 162.36 52.7421 163.255 53.1935 167.091C53.3941 168.739 53.7452 170.951 54.3721 173.54C46.5232 165.985 40.5801 160.054 36.0413 155.158C34.5868 153.605 31.678 150.404 28.5936 150.921C27.0138 151.18 25.4841 152.404 24.9324 153.911C24.0547 156.335 25.9605 158.83 31.2517 165.255C34.5367 169.233 37.4205 172.669 39.7526 175.423C30.1734 170.316 23.3025 166.385 18.1367 163.302C15.7043 161.842 11.8927 159.536 8.93367 160.854C7.12817 161.678 5.8242 163.772 5.9245 165.702C6.07496 168.88 9.83642 170.763 16.1306 174.411C19.6664 176.459 24.9575 179.636 31.4272 183.849C25.6847 182.437 16.1055 180.342 7.90554 180.178C5.54836 180.131 2.36365 180.225 1.15999 182.061C0.156931 183.567 0.934299 185.591 1.15999 186.132C3.6927 192.652 24.7569 192.864 28.2927 192.864C23.1771 193.429 18.7636 194.041 15.2028 194.559C13.3722 194.841 10.9899 195.218 10.2126 196.795C9.66089 197.924 10.1373 199.29 10.4884 199.878C12.9208 203.809 27.1642 200.137 29.5465 199.501C31.8284 201.337 36.2419 204.421 42.7116 206.092C48.6296 207.622 53.67 207.292 56.5538 206.915C56.4785 209.128 57.4314 211.081 59.0363 211.717C60.7164 212.376 62.6975 211.435 63.9764 210.799C64.854 210.375 65.4308 209.905 66.0577 209.481C67.5372 208.445 70.5965 206.092 73.1794 202.137C74.7592 199.69 75.1103 198.913 75.2106 198.395C75.336 197.689 75.7121 195.571 74.2326 193.994C73.0039 192.676 70.8975 192.205 68.8663 192.676Z"
    fill="#BBBBBB" stroke="#58595B" stroke-width="1.31947" stroke-miterlimit="10" />
  <path
    d="M54.7733 175.211C54.4975 176.93 54.347 179.071 54.673 181.496C55.5005 188.015 59.1366 192.535 61.0173 194.559"
    stroke="#58595B" stroke-width="1.31947" stroke-miterlimit="10" />
  <path
    d="M126.642 29.6595C134.766 38.7682 157.586 72.779 156.558 73.5792C154.652 75.062 108.862 63.3171 94.8447 42.8401C87.9988 32.8605 89.9548 19.2327 99.3584 11.7244C108.762 4.21617 118.517 20.5507 126.642 29.6359V29.6595Z"
    fill="#BBBBBB" />
  <path
    d="M145.252 67.463C145.965 67.0383 146.17 66.1422 145.71 65.4617C145.25 64.7811 144.299 64.5738 143.586 64.9985C142.872 65.4233 142.667 66.3193 143.127 66.9999C143.587 67.6804 144.538 67.8878 145.252 67.463Z"
    fill="white" />
  <path
    d="M122.681 56.5058C123.394 56.081 123.599 55.185 123.139 54.5044C122.679 53.8239 121.728 53.6165 121.015 54.0413C120.301 54.466 120.096 55.3621 120.556 56.0426C121.016 56.7232 121.967 56.9305 122.681 56.5058Z"
    fill="white" />
  <path
    d="M125.455 40.9568C126.168 40.532 126.374 39.636 125.914 38.9554C125.454 38.2748 124.503 38.0675 123.789 38.4923C123.076 38.917 122.87 39.813 123.33 40.4936C123.79 41.1742 124.742 41.3815 125.455 40.9568Z"
    fill="white" />
  <path
    d="M141.62 57.3558C142.334 56.931 142.539 56.035 142.079 55.3545C141.619 54.6739 140.668 54.4665 139.955 54.8913C139.241 55.3161 139.036 56.2121 139.496 56.8927C139.956 57.5732 140.907 57.7806 141.62 57.3558Z"
    fill="white" />
  <path d="M139.155 46.0649L140.935 56.7742" stroke="white" stroke-width="0.816813" stroke-miterlimit="10" />
  <path d="M140.783 56.1152L144.419 66.236" stroke="white" stroke-width="0.816813" stroke-miterlimit="10" />
  <path d="M121.851 55.2913L144.42 66.2359" stroke="white" stroke-width="0.816813" stroke-miterlimit="10" />
  <path d="M124.635 39.7335L121.851 55.2913" stroke="white" stroke-width="0.816813" stroke-miterlimit="10" />
  <path d="M140.784 56.1151L124.635 39.7335" stroke="white" stroke-width="0.816813" stroke-miterlimit="10" />
  <path d="M109.438 55.3382L121.399 55.244" stroke="white" stroke-width="0.816813" stroke-miterlimit="10" />
  <path d="M92.8884 20.4802L124.635 39.7333" stroke="white" stroke-width="0.816813" stroke-miterlimit="10" />
  <path d="M122.103 24.3168L124.636 39.7334" stroke="white" stroke-width="0.816813" stroke-miterlimit="10" />
  <path d="M155.529 73.1555L144.42 66.2357" stroke="white" stroke-width="0.816813" stroke-miterlimit="10" />
  <path
    d="M195.477 23.8459C189.509 34.3198 174.614 72.0022 175.792 72.5907C177.974 73.6734 220.228 53.3611 229.481 30.6245C233.995 19.5387 229.105 6.59341 218.272 1.03872C207.439 -4.49243 201.446 13.372 195.477 23.8224V23.8459Z"
    fill="#BBBBBB" />
  <path
    d="M187.495 63.5512C187.796 62.7965 187.399 61.9591 186.608 61.6808C185.817 61.4024 184.931 61.7886 184.63 62.5432C184.329 63.2979 184.726 64.1353 185.517 64.4137C186.308 64.692 187.193 64.3059 187.495 63.5512Z"
    fill="white" />
  <path
    d="M207.196 48.496C207.497 47.7414 207.1 46.904 206.309 46.6256C205.518 46.3473 204.633 46.7334 204.331 47.4881C204.03 48.2427 204.427 49.0801 205.218 49.3585C206.009 49.6368 206.894 49.2507 207.196 48.496Z"
    fill="white" />
  <path
    d="M201.044 33.8178C201.346 33.0632 200.949 32.2258 200.158 31.9474C199.367 31.6691 198.481 32.0552 198.18 32.8099C197.878 33.5645 198.275 34.4019 199.066 34.6803C199.857 34.9586 200.743 34.5725 201.044 33.8178Z"
    fill="white" />
  <path
    d="M188.832 52.9611C189.133 52.2064 188.736 51.369 187.945 51.0906C187.154 50.8123 186.269 51.1984 185.967 51.9531C185.666 52.7077 186.063 53.5452 186.854 53.8235C187.645 54.1018 188.53 53.7157 188.832 52.9611Z"
    fill="white" />
  <path d="M186.827 42.2986L187.429 53.1255" stroke="white" stroke-width="0.816813" stroke-miterlimit="10" />
  <path d="M187.404 52.4427L186.075 63.0579" stroke="white" stroke-width="0.816813" stroke-miterlimit="10" />
  <path d="M205.785 47.9944L186.075 63.058" stroke="white" stroke-width="0.816813" stroke-miterlimit="10" />
  <path d="M199.642 33.3073L205.786 47.9943" stroke="white" stroke-width="0.816813" stroke-miterlimit="10" />
  <path d="M187.403 52.4428L199.64 33.3073" stroke="white" stroke-width="0.816813" stroke-miterlimit="10" />
  <path d="M217.921 45.6643L206.185 47.8532" stroke="white" stroke-width="0.816813" stroke-miterlimit="10" />
  <path d="M226.499 8.35828L199.642 33.3073" stroke="white" stroke-width="0.816813" stroke-miterlimit="10" />
  <path d="M198.763 17.7498L199.641 33.3076" stroke="white" stroke-width="0.816813" stroke-miterlimit="10" />
  <path d="M176.696 71.955L186.075 63.058" stroke="white" stroke-width="0.816813" stroke-miterlimit="10" />
</svg>