<svg width="1em" height="1em" viewBox="0 0 20 20" fill="currentColor" xmlns="http://www.w3.org/2000/svg">
  <path
    d="M14.2637 17.5H5.7366C2.62419 17.5 0.833496 15.7973 0.833496 12.8378V7.16216C0.833496 4.2027 2.62419 2.5 5.7366 2.5H14.2637C17.3761 2.5 19.1668 4.2027 19.1668 7.16216V12.8378C19.1668 15.7973 17.3761 17.5 14.2637 17.5ZM5.7366 3.71622C3.29784 3.71622 2.11257 4.84324 2.11257 7.16216V12.8378C2.11257 15.1568 3.29784 16.2838 5.7366 16.2838H14.2637C16.7025 16.2838 17.8878 15.1568 17.8878 12.8378V7.16216C17.8878 4.84324 16.7025 3.71622 14.2637 3.71622H5.7366Z" />
  <path
    d="M9.99818 10.7053C9.2819 10.7053 8.5571 10.4945 8.00284 10.0647L5.33384 8.0377C5.06097 7.82689 5.00981 7.4458 5.23152 7.18634C5.45322 6.92688 5.854 6.87824 6.12687 7.08905L8.79585 9.11608C9.44392 9.61067 10.5439 9.61067 11.192 9.11608L13.861 7.08905C14.1338 6.87824 14.5431 6.91877 14.7563 7.18634C14.978 7.4458 14.9354 7.83499 14.654 8.0377L11.985 10.0647C11.4393 10.4945 10.7145 10.7053 9.99818 10.7053Z" />
</svg>