<svg width="1em" height="1em" viewBox="0 0 20 20" fill="none" xmlns="http://www.w3.org/2000/svg">
  <path
    d="M9.99984 1.66669C5.39984 1.66669 1.6665 5.40002 1.6665 10C1.6665 14.6 5.39984 18.3334 9.99984 18.3334C14.5998 18.3334 18.3332 14.6 18.3332 10C18.3332 5.40002 14.5998 1.66669 9.99984 1.66669ZM14.3748 10.275C14.3748 10.6167 14.0915 10.9 13.7498 10.9C13.4082 10.9 13.1248 10.6167 13.1248 10.275V7.75835L6.6915 14.1917C6.5665 14.3167 6.40817 14.375 6.24984 14.375C6.0915 14.375 5.93317 14.3167 5.80817 14.1917C5.5665 13.95 5.5665 13.55 5.80817 13.3084L12.2415 6.87502H9.72484C9.38317 6.87502 9.09984 6.59169 9.09984 6.25002C9.09984 5.90835 9.38317 5.62502 9.72484 5.62502H13.7498C14.0915 5.62502 14.3748 5.90835 14.3748 6.25002V10.275Z"
    fill="currentColor" />
</svg>