<svg width="1em" height="1em" viewBox="0 0 24 24" fill="currentColor" xmlns="http://www.w3.org/2000/svg">
<g clip-path="url(#clip0_10876_59857)">
<path d="M19.0647 0.726562H4.93538C2.214 0.726562 0 2.94056 0 5.66194C0 8.38331 2.214 10.5973 4.93538 10.5973H8.52895V14.5846L8.3535 14.4375C7.48617 13.7096 6.12895 13.7688 5.32828 14.5695C4.48922 15.4086 4.54416 16.7422 5.45658 17.5077L8.52891 20.0858V22.5703C8.52891 22.9586 8.84372 23.2734 9.23203 23.2734H17.6695C18.0578 23.2734 18.3727 22.9586 18.3727 22.5703V14.6693C18.3727 13.6073 17.5779 12.7073 16.524 12.576L12.7477 12.1056V10.5972H19.0647C21.786 10.5972 24 8.38322 24 5.66184C24 2.94047 21.786 0.726562 19.0647 0.726562ZM9.93516 21.8672V20.4609H16.9664V21.8672H9.93516ZM16.3502 13.9715C16.7015 14.0153 16.9665 14.3153 16.9665 14.6693V19.0547H9.48797L6.36047 16.4304C6.08288 16.1975 6.06605 15.8205 6.32264 15.5639C6.61083 15.2757 7.13742 15.2528 7.44961 15.5147L8.78011 16.6311C9.23648 17.014 9.9352 16.6892 9.9352 16.0925V7.10156C9.9352 6.71386 10.2506 6.39844 10.6383 6.39844C11.026 6.39844 11.3415 6.71386 11.3415 7.10156V12.7266C11.3415 13.0813 11.6057 13.3804 11.9577 13.4243L16.3502 13.9715ZM19.0647 9.19102H12.7477V7.10156C12.7477 5.93845 11.8014 4.99219 10.6383 4.99219C9.47517 4.99219 8.52891 5.93845 8.52891 7.10156V9.19102H4.93533C2.98941 9.19102 1.40625 7.60786 1.40625 5.66194C1.40625 3.71602 2.98941 2.13281 4.93538 2.13281H19.0647C21.0106 2.13281 22.5938 3.71597 22.5938 5.66194C22.5938 7.60791 21.0106 9.19102 19.0647 9.19102Z" fill="currentColor"/>
<path d="M18.5292 3.74504L16.2139 6.06034L15.3048 5.15129C15.0303 4.8767 14.585 4.8767 14.3104 5.15129C14.0358 5.42589 14.0358 5.87106 14.3104 6.14565L15.7167 7.5519C15.9912 7.8265 16.4365 7.82654 16.711 7.5519L19.5235 4.7394C19.7981 4.46481 19.7981 4.01964 19.5235 3.74504C19.249 3.4704 18.8038 3.4704 18.5292 3.74504Z" fill="currentColor"/>
</g>
<defs>
<clipPath id="clip0_10876_59857">
<rect width="24" height="24" fill="white"/>
</clipPath>
</defs>
</svg>
