<svg width="1em" height="1em" viewBox="0 0 24 24" fill="currentColor" xmlns="http://www.w3.org/2000/svg">
  <path
    d="M16.2046 10.5885C16.2046 10.1071 15.8144 9.7168 15.3329 9.7168H6.35415C5.87269 9.7168 5.48242 10.1071 5.48242 10.5885C5.48242 11.07 5.87269 11.4602 6.35415 11.4602H15.3329C15.8144 11.4602 16.2046 11.07 16.2046 10.5885Z" />
  <path
    d="M6.35415 13.2051C5.87269 13.2051 5.48242 13.5953 5.48242 14.0768C5.48242 14.5583 5.87269 14.9485 6.35415 14.9485H11.8073C12.2887 14.9485 12.679 14.5583 12.679 14.0768C12.679 13.5953 12.2887 13.2051 11.8073 13.2051H6.35415Z" />
  <path
    d="M8.40234 21.5727H5.4869C4.52556 21.5727 3.74345 20.7906 3.74345 19.8293V4.4869C3.74345 3.52556 4.52556 2.74345 5.4869 2.74345H16.2043C17.1656 2.74345 17.9477 3.52556 17.9477 4.4869V9.84801C17.9477 10.3295 18.338 10.7197 18.8195 10.7197C19.3009 10.7197 19.6912 10.3295 19.6912 9.84801V4.4869C19.6912 2.56422 18.127 1 16.2043 1H5.4869C3.56422 1 2 2.56422 2 4.4869V19.8293C2 21.7519 3.56422 23.3162 5.4869 23.3162H8.40234C8.88379 23.3162 9.27406 22.9259 9.27406 22.4444C9.27406 21.963 8.88379 21.5727 8.40234 21.5727Z" />
  <path
    d="M21.2351 13.6223C20.2154 12.6026 18.5563 12.6026 17.5373 13.6216L12.7514 18.3969C12.6498 18.4983 12.5748 18.6232 12.5331 18.7606L11.4908 22.1919C11.3984 22.4962 11.4789 22.8265 11.7009 23.0541C11.8672 23.2245 12.0932 23.3171 12.3249 23.3171C12.4025 23.3171 12.4808 23.3067 12.5576 23.2854L16.0761 22.3107C16.2209 22.2706 16.3529 22.1938 16.4592 22.0876L21.2351 17.3207C22.2548 16.3011 22.2548 14.642 21.2351 13.6223ZM15.3898 20.6918L13.6197 21.1821L14.1377 19.4766L17.3669 16.2545L18.6 17.4876L15.3898 20.6918ZM20.0029 16.0874L19.834 16.256L18.6012 15.0231L18.7695 14.8551C19.1094 14.5153 19.6624 14.5153 20.0023 14.8551C20.3422 15.195 20.3422 15.7481 20.0029 16.0874Z" />
  <path
    d="M15.3329 6.23047H6.35415C5.87269 6.23047 5.48242 6.62074 5.48242 7.10219C5.48242 7.58365 5.87269 7.97392 6.35415 7.97392H15.3329C15.8144 7.97392 16.2046 7.58365 16.2046 7.10219C16.2046 6.62074 15.8144 6.23047 15.3329 6.23047Z" />
</svg>