<svg width="1em" height="1em" viewBox="0 0 20 20" fill="currentColor" xmlns="http://www.w3.org/2000/svg">
<path d="M10.0001 1.66663C5.40008 1.66663 1.66675 5.39996 1.66675 9.99996C1.66675 14.6 5.40008 18.3333 10.0001 18.3333C14.6001 18.3333 18.3334 14.6 18.3334 9.99996C18.3334 5.39996 14.6001 1.66663 10.0001 1.66663ZM14.3751 10.275C14.3751 10.6166 14.0917 10.9 13.7501 10.9C13.4084 10.9 13.1251 10.6166 13.1251 10.275V7.75829L6.69175 14.1916C6.56675 14.3166 6.40841 14.375 6.25008 14.375C6.09175 14.375 5.93341 14.3166 5.80841 14.1916C5.56675 13.95 5.56675 13.55 5.80841 13.3083L12.2417 6.87496H9.72508C9.38342 6.87496 9.10008 6.59163 9.10008 6.24996C9.10008 5.90829 9.38342 5.62496 9.72508 5.62496H13.7501C14.0917 5.62496 14.3751 5.90829 14.3751 6.24996V10.275Z" />
</svg>
