<svg width="1em" height="1em" viewBox="0 0 24 24" fill="currentColor" xmlns="http://www.w3.org/2000/svg">
<path d="M12.5002 22.7502H4.08021C2.51021 22.7502 1.22021 21.4902 1.22021 19.9302V5.09019C1.22021 3.56019 1.79021 2.37019 2.83021 1.72019C3.88021 1.06019 5.24022 1.08019 6.65022 1.78019L11.0902 3.96019C12.3002 4.56019 13.2502 6.07019 13.2502 7.41019V22.0002C13.2502 22.4102 12.9102 22.7502 12.5002 22.7502ZM4.56021 2.75019C4.21021 2.75019 3.89021 2.83019 3.62021 3.00019C3.04021 3.36019 2.72021 4.11019 2.72021 5.09019V19.9302C2.72021 20.6602 3.33021 21.2502 4.08021 21.2502H11.7502V7.41019C11.7502 6.64019 11.1302 5.65019 10.4202 5.31019L5.98022 3.13019C5.47021 2.88019 4.99021 2.75019 4.56021 2.75019Z" fill="currentColor"/>
<path d="M18.81 22.7498H12.5C12.09 22.7498 11.75 22.4098 11.75 21.9998V10.4198C11.75 10.1898 11.85 9.97978 12.03 9.83978C12.21 9.69978 12.43 9.63978 12.66 9.68978L13.13 9.78978L19.67 11.2498C21.66 11.6898 22.66 12.8598 22.72 14.8498C22.73 14.8498 22.73 14.9498 22.73 15.0598V18.8398C22.72 21.3998 21.37 22.7498 18.81 22.7498ZM13.25 21.2498H18.81C20.57 21.2498 21.22 20.5998 21.22 18.8398V14.9798C21.17 13.6098 20.65 12.9998 19.34 12.7098L13.25 11.3498V21.2498Z" fill="currentColor"/>
<path d="M8.97 9.75H5.5C5.09 9.75 4.75 9.41 4.75 9C4.75 8.59 5.09 8.25 5.5 8.25H8.97C9.38 8.25 9.72 8.59 9.72 9C9.72 9.41 9.39 9.75 8.97 9.75Z" fill="currentColor"/>
<path d="M18.3964 15.5H15.6036C15.2736 15.5 15 15.16 15 14.75C15 14.34 15.2736 14 15.6036 14H18.3964C18.7264 14 19 14.34 19 14.75C19 15.16 18.7344 15.5 18.3964 15.5Z" fill="currentColor"/>
<path d="M8.97 13.75H5.5C5.09 13.75 4.75 13.41 4.75 13C4.75 12.59 5.09 12.25 5.5 12.25H8.97C9.38 12.25 9.72 12.59 9.72 13C9.72 13.41 9.39 13.75 8.97 13.75Z" fill="currentColor"/>
<path d="M8.97 17.75H5.5C5.09 17.75 4.75 17.41 4.75 17C4.75 16.59 5.09 16.25 5.5 16.25H8.97C9.38 16.25 9.72 16.59 9.72 17C9.72 17.41 9.39 17.75 8.97 17.75Z" fill="currentColor"/>
<path d="M18.3964 19H15.6036C15.2736 19 15 18.66 15 18.25C15 17.84 15.2736 17.5 15.6036 17.5H18.3964C18.7264 17.5 19 17.84 19 18.25C19 18.66 18.7344 19 18.3964 19Z" fill="currentColor"/>
</svg>
