<svg width="1em" height="1em" viewBox="0 0 24 24" fill="currentColor" xmlns="http://www.w3.org/2000/svg">
  <path
    d="M18.4707 22.75H14.4707C12.0507 22.75 10.7207 21.42 10.7207 19V5C10.7207 2.58 12.0507 1.25 14.4707 1.25H18.4707C20.8907 1.25 22.2207 2.58 22.2207 5V19C22.2207 21.42 20.8807 22.75 18.4707 22.75ZM14.4707 2.75C12.8907 2.75 12.2207 3.42 12.2207 5V19C12.2207 20.58 12.8907 21.25 14.4707 21.25H18.4707C20.0507 21.25 20.7207 20.58 20.7207 19V5C20.7207 3.42 20.0507 2.75 18.4707 2.75H14.4707Z" />
  <path
    d="M16.4707 6.75H11.4707C11.0607 6.75 10.7207 6.41 10.7207 6C10.7207 5.59 11.0607 5.25 11.4707 5.25H16.4707C16.8807 5.25 17.2207 5.59 17.2207 6C17.2207 6.41 16.8807 6.75 16.4707 6.75Z" />
  <path
    d="M15.4707 18.75H11.4707C11.0607 18.75 10.7207 18.41 10.7207 18C10.7207 17.59 11.0607 17.25 11.4707 17.25H15.4707C15.8807 17.25 16.2207 17.59 16.2207 18C16.2207 18.41 15.8807 18.75 15.4707 18.75Z" />
  <path
    d="M16.4709 14.7492C16.4609 14.7492 16.4609 14.7492 16.4709 14.7492L11.4609 14.6992C11.0509 14.6992 10.7109 14.3592 10.7209 13.9392C10.7209 13.5292 11.0609 13.1992 11.4709 13.1992C11.4709 13.1992 11.4709 13.1992 11.4809 13.1992L16.4809 13.2492C16.8909 13.2492 17.2309 13.5892 17.2209 14.0092C17.2109 14.4192 16.8809 14.7492 16.4709 14.7492Z" />
  <path
    d="M14.4707 10.75H11.4707C11.0607 10.75 10.7207 10.41 10.7207 10C10.7207 9.59 11.0607 9.25 11.4707 9.25H14.4707C14.8807 9.25 15.2207 9.59 15.2207 10C15.2207 10.41 14.8807 10.75 14.4707 10.75Z" />
  <path
    d="M5.49027 22.72C4.58027 22.72 3.72027 22.16 3.13027 21.18L2.31027 19.82C2.01027 19.32 1.78027 18.5 1.78027 17.92V4.95C1.78027 2.91 3.44027 1.25 5.48027 1.25C7.52027 1.25 9.18027 2.91 9.18027 4.95V17.91C9.18027 18.49 8.95027 19.31 8.65027 19.81L7.83027 21.17C7.26027 22.16 6.40027 22.72 5.49027 22.72ZM5.49027 2.75C4.28027 2.75 3.29027 3.74 3.29027 4.95V17.91C3.29027 18.22 3.44027 18.77 3.60027 19.04L4.42027 20.4C4.73027 20.92 5.12027 21.21 5.49027 21.21C5.86027 21.21 6.25027 20.91 6.56027 20.4L7.38027 19.04C7.54027 18.77 7.69027 18.22 7.69027 17.91V4.95C7.69027 3.74 6.70027 2.75 5.49027 2.75Z" />
  <path
    d="M8.44027 7.75H2.53027C2.12027 7.75 1.78027 7.41 1.78027 7C1.78027 6.59 2.12027 6.25 2.53027 6.25H8.44027C8.85027 6.25 9.19027 6.59 9.19027 7C9.19027 7.41 8.85027 7.75 8.44027 7.75Z" />
</svg>