<svg width="1em" height="1em" viewBox="0 0 24 24" fill="currentColor" xmlns="http://www.w3.org/2000/svg">
  <path
    d="M10.9482 2C13.4787 2 15.6404 3.49038 16.5 5.59082C16.6716 6.01081 16.3739 6.45117 15.9258 6.52246C15.5274 6.58578 15.1537 6.33047 14.9854 5.96387C14.31 4.49268 12.7564 3.46387 10.9482 3.46387C8.52025 3.46397 6.55198 5.31965 6.55176 7.60938V16.3906C6.55198 18.6803 8.52025 20.536 10.9482 20.5361C13.3763 20.5361 15.3445 18.6804 15.3447 16.3906V11.0684C15.3448 10.6399 15.6927 10.293 16.1211 10.293C16.5495 10.293 16.8964 10.64 16.8965 11.0684V16.3906C16.8963 19.4886 14.2333 22 10.9482 22C7.66324 21.9999 5.00022 19.4886 5 16.3906V7.60938C5.00022 4.51143 7.66324 2.0001 10.9482 2ZM10.9482 14.1875C11.3767 14.1875 11.7245 14.515 11.7246 14.9189V16.8701C11.7246 17.2742 11.3768 17.6025 10.9482 17.6025C10.5199 17.6023 10.1729 17.2741 10.1729 16.8701V14.9189C10.173 14.5151 10.52 14.1877 10.9482 14.1875ZM10.9482 6.39258C11.9627 6.3926 12.8228 7.00546 13.1416 7.85938H19.2246C19.6528 7.85961 19.9999 8.18698 20 8.59082C20 8.99478 19.6529 9.32301 19.2246 9.32324H13.1387C12.8176 10.1731 11.9597 10.7822 10.9482 10.7822C9.66286 10.7822 8.62035 9.80003 8.62012 8.58789C8.62012 7.37556 9.66272 6.39258 10.9482 6.39258ZM10.9482 7.85547C10.5197 7.85547 10.1719 8.18378 10.1719 8.58789C10.1721 8.99181 10.5199 9.31934 10.9482 9.31934C11.3766 9.31931 11.7234 8.9918 11.7236 8.58789C11.7236 8.18379 11.3767 7.85549 10.9482 7.85547Z" />
</svg>