<svg width="1em" height="1em" viewBox="0 0 24 24" fill="currentColor" xmlns="http://www.w3.org/2000/svg">
  <path
    d="M6.88086 18.9001C6.47086 18.9001 6.13086 18.5601 6.13086 18.1501V16.0801C6.13086 15.6701 6.47086 15.3301 6.88086 15.3301C7.29086 15.3301 7.63086 15.6701 7.63086 16.0801V18.1501C7.63086 18.5701 7.29086 18.9001 6.88086 18.9001Z" />
  <path
    d="M12 18.9C11.59 18.9 11.25 18.56 11.25 18.15V14C11.25 13.59 11.59 13.25 12 13.25C12.41 13.25 12.75 13.59 12.75 14V18.15C12.75 18.57 12.41 18.9 12 18.9Z" />
  <path
    d="M17.1191 18.8997C16.7091 18.8997 16.3691 18.5597 16.3691 18.1497V11.9297C16.3691 11.5197 16.7091 11.1797 17.1191 11.1797C17.5291 11.1797 17.8691 11.5197 17.8691 11.9297V18.1497C17.8691 18.5697 17.5391 18.8997 17.1191 18.8997Z" />
  <path
    d="M6.87958 13.1794C6.53958 13.1794 6.23958 12.9494 6.14958 12.6094C6.04958 12.2094 6.28958 11.7994 6.69958 11.6994C10.3796 10.7794 13.6196 8.76943 16.0896 5.89943L16.5496 5.35943C16.8196 5.04943 17.2896 5.00943 17.6096 5.27943C17.9196 5.54943 17.9596 6.01943 17.6896 6.33943L17.2296 6.87943C14.5596 9.99943 11.0396 12.1694 7.05958 13.1594C6.99958 13.1794 6.93958 13.1794 6.87958 13.1794Z" />
  <path
    d="M17.1195 9.51961C16.7095 9.51961 16.3695 9.17961 16.3695 8.76961V6.59961H14.1895C13.7795 6.59961 13.4395 6.25961 13.4395 5.84961C13.4395 5.43961 13.7795 5.09961 14.1895 5.09961H17.1195C17.5295 5.09961 17.8695 5.43961 17.8695 5.84961V8.77961C17.8695 9.18961 17.5395 9.51961 17.1195 9.51961Z" />
  <path
    d="M15 22.75H9C3.57 22.75 1.25 20.43 1.25 15V9C1.25 3.57 3.57 1.25 9 1.25H15C20.43 1.25 22.75 3.57 22.75 9V15C22.75 20.43 20.43 22.75 15 22.75ZM9 2.75C4.39 2.75 2.75 4.39 2.75 9V15C2.75 19.61 4.39 21.25 9 21.25H15C19.61 21.25 21.25 19.61 21.25 15V9C21.25 4.39 19.61 2.75 15 2.75H9Z" />
</svg>