<svg width="1em" height="1em" viewBox="0 0 24 24" fill="currentColor" xmlns="http://www.w3.org/2000/svg">
  <path
    d="M12.2879 19.3747L8.22568 19.2988C6.91044 19.2723 5.59191 19.3251 4.30246 19.051C2.34089 18.6415 2.20193 16.6336 2.05652 14.9494C1.85615 12.5816 1.93372 10.1707 2.31183 7.82266C2.52528 6.50514 3.36532 5.71897 4.6644 5.63342C9.04975 5.32295 13.4643 5.35974 17.8399 5.50459C18.302 5.51787 18.7673 5.59044 19.223 5.67306C21.4723 6.07597 21.5271 8.35137 21.673 10.2668C21.8184 12.2021 21.757 14.1472 21.479 16.0693C21.2561 17.6607 20.8295 18.9952 19.0291 19.124C16.7733 19.2925 14.5693 19.4281 12.3072 19.3849C12.3073 19.3747 12.2943 19.3747 12.2879 19.3747ZM9.8997 15.3457C11.5996 14.3483 13.2671 13.3675 14.9573 12.3768C13.2542 11.3794 11.5899 10.3986 9.8997 9.40788V15.3457Z" />
</svg>